<svg xmlns:xlink="http://www.w3.org/1999/xlink" xmlns="http://www.w3.org/2000/svg" filter="url(#colors3632214261)" x="0" y="0" width="112" height="110.88779541201747" filtersec="colorsf528124094" class="image-svg-svg primary" style="overflow: visible;" fill="#FFFFFF"><svg xmlns="http://www.w3.org/2000/svg" viewBox="-0.014685994945466518 0.0025300979614257812 60.607749938964844 60.00615310668945" fill="#FFFFFF"><path d="M5.88 17.49l34.3 8.91a2.6 2.6 0 0 0 3.21-2l3.67-17.77a2.61 2.61 0 0 0-1.51-2.92C39 .86 17.41-6.54 4.33 13.55a2.61 2.61 0 0 0 1.55 3.94z" fill="#FDAC00"></path><path d="M32.38 56.64L22.3 22.88a2.61 2.61 0 0 0-3.38-1.72L1.74 27.25A2.62 2.62 0 0 0 0 30c.66 6.7 4.69 27.89 29.67 30a2.61 2.61 0 0 0 2.71-3.36z" fill="#00E8B5"></path><path d="M53.19 15L28.33 40a2.6 2.6 0 0 0 .1 3.78L42 55.9a2.6 2.6 0 0 0 3.2.23c5.6-3.79 22.3-17.44 12.23-40.39a2.61 2.61 0 0 0-4.24-.74z" fill="#B7C2FD"></path></svg></svg>