<svg height="30" width="30" xmlns="http://www.w3.org/2000/svg" xmlns:xlink="http://www.w3.org/1999/xlink"><linearGradient id="a"><stop offset="0" stop-color="#0044b1"/><stop offset="1" stop-color="#0062ff" stop-opacity="0"/></linearGradient><linearGradient id="b" x1="99.859%" x2="71.355%" xlink:href="#a" y1="35.988%" y2="75.908%"/><linearGradient id="d" x1="12.193%" x2="62.325%" y1="74.117%" y2="37.893%"><stop offset="0" stop-color="#1a4acc"/><stop offset="1" stop-color="#0854e4"/></linearGradient><linearGradient id="e" x1="50%" x2="50%" y1="86.166%" y2="12.441%"><stop offset="0" stop-color="#0a5df6"/><stop offset="1" stop-color="#124cdc"/></linearGradient><linearGradient id="f" x1="100%" x2="71.355%" xlink:href="#a" y1="37.348%" y2="73.067%"/><linearGradient id="h" x1="50%" x2="50%" y1="0%" y2="100%"><stop offset="0" stop-color="#4ac3ff"/><stop offset="1" stop-color="#0e93f8"/></linearGradient><mask id="c" fill="#fff"><path d="M5.974 0l5.33 3.115v7.277L.124 3.777a.254.254 0 01.004-.439z" fill-rule="evenodd"/></mask><mask id="g" fill="#fff"><path d="M5.906 0l5.686 2.876.005 7.106L.13 3.552a.254.254 0 01.004-.444z" fill-rule="evenodd"/></mask><g fill="none" fill-rule="evenodd"><path d="M9.666 18.096l5.33 3.115v7.277l-11.18-6.615a.254.254 0 01.004-.439z" fill="#0062ff" fill-rule="nonzero"/><path d="M11.304 10.392V3.115L6.302-.206-.214 3.573z" fill="url(#b)" fill-rule="nonzero" mask="url(#c)" opacity=".6" transform="translate(3.692 18.096)"/><path d="M15 28.498l-.088-7.2.46-.055z" fill="#144dd4"/><g fill-rule="nonzero"><path d="M23.387 13.466l.172 7.16-11.775 6.382v-7.223z" fill="url(#d)" transform="translate(3.216 1.49)"/><path d="M23.56 20.626V6.509l-5.41 2.892v6.884z" fill="url(#e)" transform="translate(3.216 1.49)"/><path d="M9.31 11.345L15 14.22v7.106l-11.467-6.43a.254.254 0 01.004-.444z" fill="#0082ff"/><path d="M11.597 10.305l-.005-7.065L5.7 0 .307 3.017a.38.38 0 00-.007.66z" fill="url(#f)" mask="url(#g)" opacity=".601" transform="translate(3.403 11.345)"/><path d="M11.513.065L.129 6.474a.254.254 0 000 .442l11.655 6.588L23.56 6.509 12.01.064a.508.508 0 00-.496.001z" fill="url(#h)" transform="translate(3.216 1.49)"/></g></g></svg>